<?xml version="1.0" encoding="utf-8"?>
<!-- Generated by IcoMoon.io -->
<!DOCTYPE svg PUBLIC "-//W3C//DTD SVG 1.1//EN" "http://www.w3.org/Graphics/SVG/1.1/DTD/svg11.dtd">
<svg version="1.1" xmlns="http://www.w3.org/2000/svg" xmlns:xlink="http://www.w3.org/1999/xlink" width="640" height="640" viewBox="0 0 640 640"><g id="icomoon-ignore">
</g>
<path d="M511.648 612.128c0.352-68.128-69.952-108.448-138.144-137.824-67.936-29.248-89.632-53.888-89.632-106.688 0-31.648 20.736-21.344 29.824-79.392 3.84-24.064 22.144-0.384 25.664-55.328 0-21.888-10.016-27.328-10.016-27.328s5.088-32.416 7.072-57.376c2.048-26.144-12.736-81.92-73.632-99.040-10.624-10.912-17.824-28.224 14.944-45.568-71.68-3.328-88.352 34.176-126.528 61.76-32.48 24.192-41.248 62.496-39.68 82.88 2.080 24.96 7.136 57.376 7.136 57.376s-10.048 5.44-10.048 27.328c3.52 54.976 21.888 31.264 25.696 55.328 9.088 58.048 29.856 47.744 29.856 79.392 0 52.8-6.784 70.72-74.752 99.968-68.192 29.344-89.408 76.384-89.056 144.512 0.096 20.384-0.352 27.872-0.352 27.872h512c0 0-0.448-7.488-0.352-27.872zM544 320v-96h-64v96h-96v64h96v96h64v-96h96v-64h-96z"></path>
</svg>
