<?xml version="1.0" encoding="utf-8"?>
<!-- Generated by IcoMoon.io -->
<!DOCTYPE svg PUBLIC "-//W3C//DTD SVG 1.1//EN" "http://www.w3.org/Graphics/SVG/1.1/DTD/svg11.dtd">
<svg version="1.1" xmlns="http://www.w3.org/2000/svg" xmlns:xlink="http://www.w3.org/1999/xlink" width="768" height="768" viewBox="0 0 768 768"><g id="icomoon-ignore">
</g>
<path d="M512 32h128q39.75 0 67.875 28.125t28.125 67.875v128q0 39.75-28.125 67.875t-67.875 28.125h-128q-39.75 0-67.875-28.125t-28.125-67.875v-128q0-39.75 28.125-67.875t67.875-28.125zM128 416h128q39.75 0 67.875 28.125t28.125 67.875v128q0 39.75-28.125 67.875t-67.875 28.125h-128q-39.75 0-67.875-28.125t-28.125-67.875v-128q0-39.75 28.125-67.875t67.875-28.125zM256 480h-128q-13.25 0-22.625 9.375t-9.375 22.625v128q0 13.25 9.375 22.625t22.625 9.375h128q13.25 0 22.625-9.375t9.375-22.625v-128q0-13.25-9.375-22.625t-22.625-9.375zM128 32h128q39.75 0 67.875 28.125t28.125 67.875v128q0 39.75-28.125 67.875t-67.875 28.125h-128q-39.75 0-67.875-28.125t-28.125-67.875v-128q0-39.75 28.125-67.875t67.875-28.125zM256 96h-128q-13.25 0-22.625 9.375t-9.375 22.625v128q0 13.25 9.375 22.625t22.625 9.375h128q13.25 0 22.625-9.375t9.375-22.625v-128q0-13.25-9.375-22.625t-22.625-9.375zM512 416h128q39.75 0 67.875 28.125t28.125 67.875v128q0 39.75-28.125 67.875t-67.875 28.125h-128q-39.75 0-67.875-28.125t-28.125-67.875v-128q0-39.75 28.125-67.875t67.875-28.125zM640 480h-128q-13.25 0-22.625 9.375t-9.375 22.625v128q0 13.25 9.375 22.625t22.625 9.375h128q13.25 0 22.625-9.375t9.375-22.625v-128q0-13.25-9.375-22.625t-22.625-9.375zM640 96h-128q-13.25 0-22.625 9.375t-9.375 22.625v128q0 13.25 9.375 22.625t22.625 9.375h128q13.25 0 22.625-9.375t9.375-22.625v-128q0-13.25-9.375-22.625t-22.625-9.375z"></path>
</svg>
