<?xml version="1.0" encoding="utf-8"?>
<!-- Generated by IcoMoon.io -->
<!DOCTYPE svg PUBLIC "-//W3C//DTD SVG 1.1//EN" "http://www.w3.org/Graphics/SVG/1.1/DTD/svg11.dtd">
<svg version="1.1" xmlns="http://www.w3.org/2000/svg" xmlns:xlink="http://www.w3.org/1999/xlink" width="640" height="640" viewBox="0 0 640 640"><g id="icomoon-ignore">
</g>
<path d="M626.592 186.88c-1.376-15.008-14.784-25.696-29.44-23.36-55.744 8.896-186.432 60.48-277.152 60.48s-221.408-51.584-277.152-60.48c-14.656-2.336-28.032 8.32-29.44 23.328-4.544 49.024-13.408 179.552-13.408 199.328 0 26.56 111.104 87.424 192 87.424 78.464 0 94.4-87.424 128-87.424s49.536 87.424 128 87.424c80.896 0 192-60.864 192-87.424 0-19.776-8.864-150.304-13.408-199.296zM245.12 343.040c-11.296 10.176-42.72 34.24-80.992 26.72s-61.408-42.336-69.312-56.256c-1.92-3.392-1.312-7.68 1.408-10.144 11.296-10.176 42.72-34.24 81.024-26.72 38.272 7.52 61.408 42.336 69.312 56.256 1.888 3.392 1.28 7.68-1.44 10.144zM545.184 313.504c-7.872 13.952-31.008 48.736-69.312 56.256-38.272 7.52-69.728-16.544-80.992-26.72-2.752-2.464-3.328-6.752-1.44-10.144 7.872-13.952 31.008-48.736 69.312-56.256 38.272-7.52 69.728 16.544 80.992 26.72 2.752 2.464 3.36 6.752 1.44 10.144z"></path>
</svg>
