<?xml version="1.0" encoding="utf-8"?>
<!-- Generated by IcoMoon.io -->
<!DOCTYPE svg PUBLIC "-//W3C//DTD SVG 1.1//EN" "http://www.w3.org/Graphics/SVG/1.1/DTD/svg11.dtd">
<svg version="1.1" xmlns="http://www.w3.org/2000/svg" xmlns:xlink="http://www.w3.org/1999/xlink" width="640" height="640" viewBox="0 0 640 640"><g id="icomoon-ignore">
</g>
<path d="M552.192 392.096c-3.072-21.344-19.552-37.984-40.768-42.944-82.464-19.328-103.136-66.816-106.624-119.488-14.624-2.72-40.64-5.664-84.8-5.664s-70.176 2.944-84.8 5.664c-3.488 52.672-24.16 100.16-106.624 119.488-21.216 4.992-37.696 21.6-40.768 42.944l-15.904 110.144c-5.6 38.784 22.88 73.76 62.496 73.76h371.2c39.584 0 68.096-34.976 62.496-73.76l-15.904-110.144zM320 495.744c-44.64 0-80.832-35.84-80.832-80s36.192-80 80.832-80 80.832 35.84 80.832 80-36.224 80-80.832 80zM638.4 192c-0.768-48-122.944-127.968-318.4-128-195.488 0.032-317.664 80-318.4 128s0.672 110.464 81.12 100.064c94.112-12.192 88.32-45.056 88.32-92.032 0-32.768 76.544-40.672 148.96-40.672s148.928 7.904 148.96 40.672c0 46.976-5.792 79.84 88.32 92.032 80.416 10.4 81.856-52.064 81.12-100.064z"></path>
</svg>
