<?xml version="1.0" encoding="utf-8"?>
<!-- Generated by IcoMoon.io -->
<!DOCTYPE svg PUBLIC "-//W3C//DTD SVG 1.1//EN" "http://www.w3.org/Graphics/SVG/1.1/DTD/svg11.dtd">
<svg version="1.1" xmlns="http://www.w3.org/2000/svg" xmlns:xlink="http://www.w3.org/1999/xlink" width="512" height="512" viewBox="0 0 512 512"><g id="icomoon-ignore">
</g>
<path d="M377.875 287.575c-6.975-4.98-14.26-8.295-21.735-9.96-4.42-0.845-9.030-1.165-13.785-0.905-4.495 0.25-8.78 0.84-12.845 1.76-3.050 0.845-6.11 1.945-9.175 3.295-9.090 4.010-16.945 9.060-23.395 15.165-6.11 6.45-11.16 14.31-15.17 23.395-1.35 3.060-2.45 6.12-3.295 9.17-0.92 4.070-1.515 8.35-1.76 12.845-0.26 4.755 0.060 9.365 0.905 13.785 1.665 7.475 4.98 14.76 9.96 21.735 1.945 2.72 4.040 5.2 6.28 7.44 10.030 10.015 22.915 15.35 37.71 17.055 4.46 0.51 9.060 0.84 13.265 2.24 2.56 0.85 4.58 2.040 6.040 3.51 3.325 3.3 3.815 8.050 1.25 13.62-1.575 3.42-3.85 6.725-6.48 9.42l-1.395 1.43c-1.965 1.96-3.205 3.2-3.525 3.52-1.565 1.58-3.050 3.075-4.53 4.575l-1.48 1.46c-5.26 5.29-10.545 10.56-15.83 15.825-11.38 11.41-22.785 22.79-34.19 34.18-3.75 3.75-7.5 7.5-11.25 11.245-1.73 1.725-3.535 3.19-5.39 4.395-0.9 0.61-1.745 1.12-2.59 1.58-9.8 4.945-20.715 2.96-29.62-5.94-2.7-2.7-5.31-5.31-7.925-7.92-15.125-15.125-30.24-30.26-45.385-45.365-4.295-4.285-8.565-8.54-12.84-12.795-3.060-3.045-6.335-5.925-9.78-8.53-2.86-2.165-5.795-3.78-8.73-4.865-10.58-3.66-20.705-1.005-27.335 6.63-1.905 2.4-3.5 5.235-4.695 8.47-1.715 4.63-2.3 9.735-2.95 14.68-2.45 18.765-12.9 34.215-27.99 41.325-3.74 1.825-7.745 3.145-11.95 3.89-3.975 0.705-7.975 0.855-11.925 0.52-13.305-0.675-24.74-6.545-34.255-16.285-0.84-0.835-1.050-1.045-1.255-1.255-9.74-9.51-15.61-20.95-16.285-34.25-0.34-3.95-0.185-7.95 0.52-11.925 0.745-4.205 2.065-8.215 3.89-11.95 7.11-15.090 22.565-25.535 41.325-27.985 4.945-0.645 10.050-1.235 14.68-2.95 3.47-1.28 6.48-3.025 8.985-5.115 7.27-6.575 9.795-16.315 6.42-26.17-1.39-3.675-3-6.61-5.165-9.47-2.605-3.44-5.485-6.715-8.53-9.775-4.255-4.275-8.515-8.545-12.775-12.815-13.46-13.49-26.92-26.94-40.375-40.39l-5.015-5.015c-2.61-2.61-5.225-5.225-7.63-7.635-9.195-9.2-11.175-20.11-6.23-29.91 0.46-0.845 0.97-1.685 1.54-2.525 1.245-1.92 2.71-3.725 4.435-5.455 3.745-3.75 7.495-7.5 11.245-11.25 11.385-11.405 22.77-22.81 34.18-34.19 5.265-5.285 10.53-10.57 15.825-15.83l1.46-1.48c1.495-1.485 2.995-2.965 4.49-4.45 0.4-0.405 1.64-1.645 3.6-3.61l1.43-1.395c2.695-2.63 6-4.9 9.42-6.48 5.57-2.565 10.315-2.075 13.62 1.25 1.47 1.46 2.66 3.48 3.51 6.040 1.395 4.205 1.725 8.805 2.24 13.265 1.705 14.795 7.040 27.675 17.055 37.705 2.245 2.24 4.72 4.335 7.44 6.28 6.975 4.98 14.26 8.295 21.735 9.96 4.42 0.845 9.030 1.165 13.785 0.905 4.495-0.25 8.78-0.84 12.845-1.76 3.050-0.845 6.11-1.945 9.175-3.295 9.090-4.010 16.945-9.060 23.395-15.165 6.11-6.45 11.16-14.31 15.17-23.395 1.35-3.060 2.45-6.12 3.295-9.17 0.92-4.070 1.515-8.35 1.76-12.845 0.26-4.755-0.060-9.365-0.905-13.785-1.665-7.475-4.98-14.76-9.96-21.735-1.945-2.72-4.040-5.2-6.28-7.44-10.030-10.015-22.915-15.35-37.71-17.055-4.46-0.51-9.060-0.84-13.265-2.24-2.56-0.85-4.58-2.040-6.040-3.51-3.325-3.3-3.815-8.050-1.25-13.62 1.575-3.42 3.85-6.725 6.48-9.42l1.395-1.43c1.965-1.96 3.205-3.2 3.525-3.52 1.565-1.58 3.050-3.075 4.53-4.575l1.48-1.46c5.26-5.29 10.545-10.56 15.83-15.825 11.38-11.41 22.785-22.79 34.19-34.175 3.75-3.75 7.5-7.5 11.25-11.245 1.73-1.725 3.535-3.19 5.39-4.395 0.9-0.61 1.745-1.12 2.59-1.58 9.8-4.945 20.715-2.96 29.62 5.94 2.7 2.7 5.31 5.31 7.925 7.92 15.125 15.125 30.24 30.26 45.385 45.365 4.295 4.285 8.565 8.54 12.84 12.795 3.060 3.045 6.335 5.925 9.78 8.53 2.86 2.165 5.795 3.78 8.73 4.865 10.58 3.66 20.705 1.005 27.335-6.63 1.905-2.4 3.5-5.235 4.695-8.47 1.715-4.63 2.3-9.735 2.95-14.68 2.45-18.765 12.9-34.215 27.99-41.325 3.74-1.825 7.745-3.14 11.95-3.89 3.975-0.705 7.975-0.855 11.925-0.52 13.305 0.675 24.74 6.545 34.255 16.285 0.84 0.835 1.050 1.045 1.255 1.255 9.74 9.51 15.61 20.95 16.285 34.25 0.34 3.95 0.185 7.95-0.52 11.925-0.745 4.205-2.065 8.215-3.89 11.95-7.11 15.090-22.565 25.535-41.325 27.985-4.945 0.645-10.050 1.235-14.68 2.95-3.47 1.28-6.48 3.025-8.985 5.115-7.27 6.575-9.795 16.315-6.42 26.17 1.39 3.675 3 6.61 5.165 9.47 2.605 3.44 5.485 6.715 8.53 9.775 4.255 4.275 8.515 8.545 12.775 12.815 15.13 15.165 30.27 30.28 45.39 45.405 2.61 2.61 5.225 5.225 7.63 7.635 9.195 9.2 11.175 20.11 6.23 29.91-0.46 0.845-0.97 1.685-1.54 2.525-1.245 1.92-2.71 3.725-4.435 5.455-3.745 3.75-7.495 7.5-11.245 11.25-11.385 11.405-22.77 22.81-34.18 34.19-5.265 5.285-10.53 10.57-15.825 15.83l-1.46 1.48c-1.495 1.485-2.995 2.965-4.49 4.45-0.4 0.405-1.64 1.645-3.6 3.61l-1.43 1.395c-2.695 2.63-6 4.9-9.42 6.48-5.57 2.565-10.315 2.075-13.62-1.25-1.47-1.46-2.66-3.48-3.51-6.040-1.395-4.205-1.725-8.805-2.24-13.265-1.705-14.795-7.040-27.675-17.055-37.705-2.24-2.245-4.72-4.345-7.44-6.285z"></path>
</svg>
