<?xml version="1.0" encoding="utf-8"?>
<!-- Generated by IcoMoon.io -->
<!DOCTYPE svg PUBLIC "-//W3C//DTD SVG 1.1//EN" "http://www.w3.org/Graphics/SVG/1.1/DTD/svg11.dtd">
<svg version="1.1" xmlns="http://www.w3.org/2000/svg" xmlns:xlink="http://www.w3.org/1999/xlink" width="1024" height="1024" viewBox="0 0 1024 1024"><g id="icomoon-ignore">
</g>
<path d="M544 208c0-8.832-7.168-16-16-16s-16 7.168-16 16v272h-304c-8.832 0-16 7.168-16 16s7.168 16 16 16h304v303.008c0 8.832 7.168 16 16 16s16-7.168 16-16v-303.008h303.008c8.832 0 16-7.168 16-16s-7.168-16-16-16h-303.008v-272zM1009.984 480h-83.616c-15.616-203.84-178.528-366.752-382.368-382.368v-81.632c0-8.832-7.168-16-16-16s-16 7.168-16 16v80c-218.56 0-397.92 169.568-414.368 384h-79.648c-8.832 0-16 7.168-16 16s7.168 16 16 16h78.016c0 229.376 186.624 416 416 416v80c0 8.832 7.168 16 16 16s16-7.168 16-16v-81.632c214.432-16.448 384-195.808 384-414.368h81.984c8.832 0 16-7.168 16-16s-7.136-16-16-16zM512 896c-211.744 0-384-172.256-384-384s172.256-384 384-384 384 172.256 384 384-172.256 384-384 384z"></path>
</svg>
