<?xml version="1.0" encoding="utf-8"?>
<!-- Generated by IcoMoon.io -->
<!DOCTYPE svg PUBLIC "-//W3C//DTD SVG 1.1//EN" "http://www.w3.org/Graphics/SVG/1.1/DTD/svg11.dtd">
<svg version="1.1" xmlns="http://www.w3.org/2000/svg" xmlns:xlink="http://www.w3.org/1999/xlink" width="512" height="512" viewBox="0 0 512 512"><g id="icomoon-ignore">
</g>
<path d="M502.816 502.816c-12.448 12.448-32.512 12.448-44.928 0l-224.736-224.704c-12.416-12.448-12.416-32.544 0-44.992 12.448-12.416 32.576-12.416 44.992 0l224.672 224.736c12.448 12.448 12.448 32.512 0 44.96zM155.808 155.808c11.936 11.936-11.136 100.256-11.136 100.256-24.384-24.384-55.712-77.984-55.712-77.984s-89.088 12.928-89.088 0 44.576-66.848 44.576-66.848c-22.688-52.416-22.304-89.088-22.304-89.088s36.672-0.384 89.088 22.272c0 0 53.92-44.576 66.848-44.576s0 89.088 0 89.088 53.6 31.36 77.952 55.744c0 0-88.288 23.072-100.224 11.136z"></path>
</svg>
