<?xml version="1.0" encoding="utf-8"?>
<!-- Generated by IcoMoon.io -->
<!DOCTYPE svg PUBLIC "-//W3C//DTD SVG 1.1//EN" "http://www.w3.org/Graphics/SVG/1.1/DTD/svg11.dtd">
<svg version="1.1" xmlns="http://www.w3.org/2000/svg" xmlns:xlink="http://www.w3.org/1999/xlink" width="768" height="768" viewBox="0 0 768 768"><g id="icomoon-ignore">
</g>
<path d="M288 0h192q39.75 0 67.875 28.125t28.125 67.875v73.5q45 40 70.5 95.875t25.5 118.625-25.5 118.5-70.5 96v73.5q0 39.75-28.125 67.875t-67.875 28.125h-192q-39.75 0-67.875-28.125t-28.125-67.875v-73.5q-45-40.25-70.5-96t-25.5-118.5 25.5-118.625 70.5-95.875v-73.5q0-39.75 28.125-67.875t67.875-28.125zM512 672v-30q-60 30-128 30t-128-30v30q0 13.25 9.375 22.625t22.625 9.375h192q13.25 0 22.625-9.375t9.375-22.625zM384 160q-45.5 0-87 17.75t-71.5 47.75-47.75 71.5-17.75 87 17.75 87 47.75 71.5 71.5 47.75 87 17.75 87-17.75 71.5-47.75 47.75-71.5 17.75-87-17.75-87-47.75-71.5-71.5-47.75-87-17.75zM384 224q13.25 0 22.625 9.375t9.375 22.625v114.75l54.75 54.5q9.25 9.25 9.25 22.75t-9.25 22.75-22.75 9.25-22.75-9.25l-64-64q-9.25-9.25-9.25-22.75v-128q0-13.25 9.375-22.625t22.625-9.375zM480 64h-192q-13.25 0-22.625 9.375t-9.375 22.625v30q60-30 128-30t128 30v-30q0-13.25-9.375-22.625t-22.625-9.375z"></path>
</svg>
